<svg width="27" height="20" viewBox="0 0 27 20" fill="none" xmlns="http://www.w3.org/2000/svg">
<path fill-rule="evenodd" clip-rule="evenodd" d="M0 8.62988V10.5403C0 14.4489 0 16.4033 1.2224 17.6607C2.44474 18.9182 4.36909 18.9726 8.21765 19.0816L8.21826 19.0816C10.0422 19.1331 11.9054 19.1701 13.5 19.1701C15.0946 19.1701 16.9578 19.1331 18.7817 19.0816L18.7823 19.0816C22.6309 18.9726 24.5552 18.9182 25.7776 17.6607C27 16.4033 27 14.4489 27 10.5403V8.62988C27 4.72115 27 2.76681 25.7776 1.50933C24.5552 0.251844 22.6306 0.197411 18.7816 0.0885468L18.7816 0.0885464C16.9578 0.0369629 15.0946 0 13.5 0C11.9054 0 10.0423 0.0369629 8.21838 0.0885464C4.36936 0.19741 2.44484 0.251843 1.22241 1.50933C0 2.76681 0 4.72115 0 8.62988ZM11 13L17 9.5L11 6V13Z" fill="white"/>
</svg>
