<svg width="26" height="22" viewBox="0 0 26 22" fill="none" xmlns="http://www.w3.org/2000/svg">
<path d="M26 0.0118881C26 0.0118881 23.6152 1.42075 22.2891 1.82007C21.5773 1.00167 20.6314 0.421613 19.5792 0.158339C18.527 -0.104923 17.4194 -0.0387058 16.4061 0.348056C15.3928 0.734818 14.5227 1.42345 13.9135 2.32082C13.3043 3.2182 12.9855 4.28101 13 5.36552V6.54734C10.9231 6.60119 8.86514 6.14057 7.00938 5.2065C5.1536 4.27243 3.55765 2.89391 2.36364 1.19371C2.36364 1.19371 -2.36364 11.8301 8.27273 16.5574C5.83881 18.2095 2.93937 19.0379 0 18.921C10.6364 24.8301 23.6364 18.921 23.6364 5.33007C23.6353 5.00087 23.6036 4.67249 23.5418 4.34916C24.748 3.15965 26 0.0118881 26 0.0118881Z" fill="white"/>
</svg>
